<?xml version="1.0" standalone="no"?>
<!DOCTYPE svg PUBLIC "-//W3C//DTD SVG 20010904//EN"
 "http://www.w3.org/TR/2001/REC-SVG-20010904/DTD/svg10.dtd">
<svg version="1.0" xmlns="http://www.w3.org/2000/svg"
 width="150.000000pt" height="150.000000pt" viewBox="0 0 150.000000 150.000000"
 preserveAspectRatio="xMidYMid meet">
<metadata>
Created by potrace 1.16, written by Peter Selinger 2001-2019
</metadata>
<g transform="translate(0.000000,150.000000) scale(0.100000,-0.100000)"
fill="#000000" stroke="none">
<path d="M1470 890 c-1 -8 -4 -55 -7 -105 -3 -78 -6 -105 -12 -149 0 -6 -12 6
-26 25 -35 46 -88 93 -111 97 -39 7 -150 7 -177 -1 -38 -10 -104 -72 -130
-121 -31 -59 -30 -165 2 -225 12 -23 18 -40 12 -37 -6 4 -30 44 -53 89 -26 50
-44 75 -46 64 -2 -9 -8 -15 -13 -12 -14 9 -11 1 23 -71 31 -64 31 -67 13 -80
-17 -12 -12 -14 41 -14 46 0 65 -5 88 -23 l28 -23 -35 -27 c-19 -14 -51 -34
-71 -43 -37 -18 -47 -34 -21 -34 8 0 15 5 15 10 0 6 9 10 20 10 23 0 70 20 88
37 7 7 20 13 28 13 8 0 14 3 14 8 0 4 30 5 66 4 l66 -4 -43 -42 c-45 -44 -146
-116 -189 -136 -39 -18 -96 -50 -90 -51 27 -6 78 -4 74 3 -3 4 1 8 8 9 7 0 24
3 38 5 14 2 36 6 50 7 29 4 74 26 67 34 -3 2 -17 -3 -31 -13 -15 -9 -29 -14
-33 -11 -3 4 2 9 11 13 9 3 13 10 10 15 -3 5 4 9 15 9 12 0 21 7 21 15 0 11 8
14 29 10 17 -3 33 -1 36 5 4 6 -1 7 -12 4 -16 -5 -16 -4 1 10 11 9 16 16 10
16 -12 1 27 30 39 30 5 0 4 -7 -3 -15 -22 -26 -6 -25 19 1 15 16 18 22 7 18
-13 -5 -15 -2 -7 17 4 13 13 24 19 24 11 0 54 50 48 56 -2 2 8 15 22 29 18 19
23 21 18 7 -3 -10 -2 -16 3 -12 5 3 12 19 16 35 4 17 10 28 15 25 4 -3 11 2
14 11 3 8 2 13 -3 10 -5 -4 -7 3 -4 15 4 13 8 17 13 9 5 -8 9 -6 12 7 3 10 9
27 13 38 4 14 2 13 -10 -5 l-16 -25 7 35 c4 19 7 42 8 50 1 8 6 20 12 27 17
18 17 271 0 308 -8 17 -15 23 -16 15z"/>
</g>
</svg>
