<?xml version="1.0" standalone="no"?>
<!DOCTYPE svg PUBLIC "-//W3C//DTD SVG 20010904//EN"
 "http://www.w3.org/TR/2001/REC-SVG-20010904/DTD/svg10.dtd">
<svg version="1.0" xmlns="http://www.w3.org/2000/svg"
 width="128.000000pt" height="128.000000pt" viewBox="0 0 128.000000 128.000000"
 preserveAspectRatio="xMidYMid meet">
<metadata>
Created by potrace 1.16, written by Peter Selinger 2001-2019
</metadata>
<g transform="translate(0.000000,128.000000) scale(0.100000,-0.100000)"
fill="#000000" stroke="none">
<path d="M1257 750 c-3 -8 -8 -58 -11 -110 -14 -259 -136 -439 -389 -573 -27
-14 -45 -27 -40 -30 15 -8 97 22 157 58 32 19 61 34 63 32 6 -7 -23 -27 -89
-63 -72 -38 -72 -46 0 -10 51 26 140 94 107 82 -10 -4 8 21 41 56 33 35 70 77
83 93 12 17 20 24 16 17 -3 -6 -2 -12 3 -12 11 0 75 130 68 138 -3 3 -6 1 -6
-4 0 -6 -6 -19 -14 -29 -11 -15 -10 -8 2 33 10 31 19 47 22 38 3 -9 6 44 8
117 3 122 -8 205 -21 167z"/>
<path d="M1122 578 c-16 -105 -70 -208 -151 -288 -36 -36 -85 -74 -108 -84
-23 -10 -40 -23 -37 -28 3 -5 12 -4 20 3 7 6 21 9 29 5 8 -3 15 -1 15 4 0 6 7
10 15 10 16 0 24 6 103 81 28 27 52 53 52 58 0 5 3 11 8 13 7 3 64 111 64 122
0 3 6 30 13 61 8 34 10 57 4 61 -6 3 -7 14 -4 24 3 10 2 21 -3 24 -5 3 -14
-27 -20 -66z"/>
</g>
</svg>
