<?xml version="1.0" standalone="no"?>
<!DOCTYPE svg PUBLIC "-//W3C//DTD SVG 20010904//EN"
 "http://www.w3.org/TR/2001/REC-SVG-20010904/DTD/svg10.dtd">
<svg version="1.0" xmlns="http://www.w3.org/2000/svg"
 width="150.000000pt" height="150.000000pt" viewBox="0 0 150.000000 150.000000"
 preserveAspectRatio="xMidYMid meet">
<metadata>
Created by potrace 1.16, written by Peter Selinger 2001-2019
</metadata>
<g transform="translate(0.000000,150.000000) scale(0.100000,-0.100000)"
fill="#000000" stroke="none">
<path d="M1470 890 c-1 -8 -4 -51 -6 -95 -5 -128 -26 -249 -45 -261 -5 -3 -9
-13 -9 -24 0 -26 -54 -130 -84 -163 -14 -15 -26 -31 -26 -34 0 -25 -192 -182
-260 -213 -39 -18 -96 -50 -90 -51 27 -6 78 -4 74 3 -3 4 1 8 8 9 7 0 24 3 38
5 14 2 36 6 50 7 29 4 74 26 67 34 -3 2 -17 -3 -31 -13 -15 -9 -29 -14 -33
-11 -3 4 2 9 11 13 9 3 13 10 10 15 -3 5 4 9 15 9 12 0 21 7 21 15 0 11 8 14
29 10 17 -3 33 -1 36 5 4 6 -1 7 -12 4 -16 -5 -16 -4 1 10 11 9 16 16 10 16
-12 1 27 30 39 30 5 0 4 -7 -3 -15 -22 -26 -6 -25 19 1 15 16 18 22 7 18 -13
-5 -15 -2 -7 17 4 13 13 24 19 24 14 0 53 51 45 59 -3 3 -1 6 5 6 7 0 12 7 12
15 0 8 5 15 11 15 6 0 9 6 6 13 -3 8 1 14 8 14 10 0 11 -7 3 -26 -6 -18 -6
-23 1 -16 6 6 13 24 15 40 2 17 13 50 24 75 11 25 22 59 24 75 2 17 8 35 14
42 17 18 17 271 0 308 -8 17 -15 23 -16 15z"/>
<path d="M1330 755 c-1 -5 -3 -23 -5 -40 -15 -115 -77 -259 -146 -338 -46 -53
-128 -117 -183 -144 -37 -17 -47 -33 -21 -33 8 0 15 5 15 10 0 6 9 10 20 10
23 0 70 20 88 37 7 7 18 13 23 13 5 0 26 17 47 38 102 103 167 229 177 347 3
35 -10 126 -15 100z"/>
</g>
</svg>
